<?xml version="1.0" encoding="utf-8"?>
<!-- Generator: Adobe Illustrator 25.0.1, SVG Export Plug-In . SVG Version: 6.00 Build 0)  -->
<svg version="1.1" id="Layer_1" xmlns="http://www.w3.org/2000/svg" xmlns:xlink="http://www.w3.org/1999/xlink" x="0px" y="0px"
	 viewBox="0 0 985.5 1005.7" style="enable-background:new 0 0 985.5 1005.7;" xml:space="preserve">
<style type="text/css">
	.st0{fill:#FEFEFD;}
	.st1{fill:#020201;}
	.st2{fill:#92c12a;}
	.st3{fill:#F5C30D;}
</style>
<g>
	<ellipse class="st0" cx="492.8" cy="502.9" rx="492.8" ry="502.9"/>
	<path class="st1" d="M-19.2,0h1024L755.6,0.1C623.5,0.2,520.9,0.6,520.9,1c0,0,0.2,0,0.5,0.1c48.6,2.4,99.5,13.6,146.5,32.1
		c16,6.3,53.1,24.6,68.4,33.8c85.4,51,157,129.2,199.2,217.7c27.5,57.7,43.2,115.5,49,180.4c2.3,26.3,1.6,78.9-1.5,101
		c-6.7,48.2-16.5,86.9-31.8,125.3c-26.1,65.5-61.6,119.3-111.6,169.2c-22.1,22-33.9,32.5-52.1,46.1c-67.6,50.6-145,82.9-227.5,94.8
		c-37.3,5.4-87.8,5.8-125,1c-48-6.2-93.3-18.7-135.6-37.4c-57.4-25.3-107.9-59.7-150.5-102.3c-42.1-42.1-72.2-83.9-97.3-135.2
		c-19.7-40.1-32.6-77.9-41.3-121c-31.1-153.4,11.5-315.3,113.8-433c21.3-24.6,52.5-54.1,76.1-72.2c79.1-60.6,170.5-95,266-100.3
		c0.2,0,0.4,0,0.4,0c0-0.4-103.6-0.8-236.1-0.9L-19.2,0z M469.3,987.4c3.3,0.2,17,0.2,30.5,0c24-0.3,42.6-1.8,62.5-4.8
		c21.9-3.4,26.1-4.2,48.5-10.1c46.1-12.1,88-30,127.5-54.4c96.1-59.3,169.2-151.2,204.6-257.1c24.4-73.1,31.3-148.7,20.3-224
		c-8-54.6-22.7-101.6-47.4-151c-47.9-95.7-125.4-173.4-219.5-220c-52.5-26-101.6-40.1-160.5-46.1c-16.5-1.7-65.7-1.7-83.5,0
		C342,30.2,242.5,77.9,161.3,159.4C69.1,252,18,376.2,17.8,507.8c0,48.9,8.5,101.3,24.4,149.7C53,690.2,64.7,716.7,80.9,745
		c34.2,59.9,83.9,115,139.5,154.6C277,940,345.9,969,412.1,980.5C425.6,982.8,456.4,986.5,469.3,987.4z M513.7,904
		c-19,1-19.9,1-40.8-0.1c-35-1.9-70-8.7-105.1-20.5c-51.4-17.2-100.1-45.8-141-82.8l-9.5-8.6h-42.2c-36.8,0-42.4-0.2-43.7-1.6
		c-2.8-2.8-10.1-12.8-17.4-23.6c-43.6-65.3-68.6-135-77.4-216.3c-1.7-15.8-1.7-75.1,0-90c5.6-48.6,13.1-80.9,28.1-121
		c34.7-92.7,98.6-173.4,180.5-228.2c56.6-37.9,120.4-62.7,184-71.6c23.1-3.2,35.7-4,65.5-4c41.7,0,68.9,3.3,107,12.9
		c75,18.8,145.2,58.4,203.5,114.7c56.9,55,97.7,119.9,122.6,195.3c13.2,40,20.2,78.4,23,125.5c5,86-18.5,182.4-62.8,257.2
		c-11.9,20.1-26.1,41.4-32.2,48l-2.5,2.8H769l-7.4,6.8C712.8,844,650.8,877.3,586.3,893C558.1,899.9,541.1,902.5,513.7,904z
		 M911.8,451.8c4.1,3.3,7.7,5.8,8,5.5c0.7-0.6,0.1-6.3-2.1-20.8c-11.2-73.7-38-139.4-81.3-199.4C802.8,190.5,758,149.3,707.8,119
		c-24-14.5-59.9-31.1-85.5-39.5c-24.9-8.2-57.2-15.3-82.5-18.2c-18.5-2.1-70.5-2.4-89.5-0.4c-25.1,2.6-59.9,9.8-82.1,17.1
		c-49,16-97.5,41.9-136.3,72.9c-51.3,40.9-90.2,88.6-119.6,146.7c-16.6,32.8-27.3,61.9-36.5,99c-4.1,16.7-10,50-10,56.8v3.9l4.4-3.3
		c2.4-1.8,24.5-19.6,49.1-39.4c24.6-19.8,47.3-38,50.5-40.5c3.2-2.5,12.6-10,21-16.8c8.4-6.7,15.8-12.2,16.5-12.2
		c1.6,0,3.7,1.6,20.3,15.7c7.3,6.2,14.1,11.7,15.1,12.2c1.5,0.8,8.7-5.9,47.1-44.3l45.3-45.3l13.8,12.6c7.6,6.9,20.4,18.6,28.3,25.9
		s14.7,13.2,15,13.2s3.8-4.6,7.8-10.2c11.3-16,20.5-28.1,22.8-30.1c1.2-1.1,5.9-2.6,10.7-3.6c4.7-1,9.1-2.4,9.8-3.3
		c0.7-0.8,4.7-5.7,8.9-10.9c4.2-5.1,11.4-13.9,16-19.5c19.8-24.1,36.2-43.4,36.9-43.4c0.4,0,1.6,1.1,2.7,2.5
		c2.3,3,33.4,37.4,44.2,49c4.1,4.4,21.2,23.2,37.8,41.7c25.9,28.8,31.3,34.9,37.3,35.6c1.6,0.2,3.3,0,5.4-0.2c0.2,0,0.3,0,0.5-0.1
		c7-0.8,9-2.1,26.5-17c6.5-5.5,16.5-13.8,22.2-18.4l10.4-8.4l3.6,3.4c2,1.9,12.9,11.9,24.2,22.3s27,24.9,35,32.4
		c8,7.4,17.1,15.9,20.3,18.9l5.8,5.3l5.7-4.9c3.1-2.7,8-6.5,10.9-8.5c4.9-3.5,5.2-3.5,7.5-2c4,2.8,61.4,48.9,77.4,62.2
		c8.3,6.9,16.6,13.7,18.5,15.2C902.8,444.6,907.7,448.5,911.8,451.8z M312.8,635.2c0,1,359.7,1.1,360.3,0
		c0.3-0.4-18.9-19.4-42.6-42.2c-23.7-22.8-50.8-48.9-60.2-58c-9.4-9.1-27.8-26.7-40.8-39.2L505.7,473h-24.8l-25.3,24.2
		C377.8,571.7,312.8,634.5,312.8,635.2z M81,625.2c0.6,1.5,1.4,2.8,1.8,2.8c0.4,0,3.4-1.2,6.6-2.6c3.2-1.4,26.8-11.2,52.4-21.6
		c25.6-10.4,51.9-21.2,58.5-24c6.6-2.7,20.1-8.3,30-12.3s27.5-11.3,39-16.1c11.5-4.8,28-11.5,36.5-15c25.2-10.2,49.5-20.1,60.8-24.9
		c5.9-2.4,14.7-6,19.7-7.9c5-1.9,20-8,33.5-13.6c13.5-5.6,26.9-11,29.8-12.2c2.9-1.1,5.1-2.6,4.9-3.2c-0.3-0.9-48.6-1.2-195-1.4
		L65,473l-0.8,4.8c-1.2,7.7-0.9,49.6,0.4,63.8c1.3,13.3,4,31.8,6.8,46C73.3,597.1,79.4,621.4,81,625.2z M899.8,626.4
		c1.9,0.8,3.8,1.6,4.1,1.6c2.1,0.1,13.1-47.6,15-65.4c0.5-4.5,1.3-11.5,1.9-15.6c1.5-11.1,2.4-46.7,1.6-61.2l-0.7-12.8L728,473.1
		c-106.5,0-194.6,0.4-195.7,0.9c-0.6,0.2-1.2,0.4-1.2,0.6c-0.1,0.5,2.6,1.7,14.2,6.5c1.4,0.6,2.9,1.2,4.5,1.9
		c6.3,2.6,22.3,9.2,35.5,14.5c61.2,24.8,88.4,35.8,134.5,54.8c10.7,4.4,23.1,9.5,27.5,11.2C776.5,575.4,893.1,623.4,899.8,626.4z
		 M323,441.2c-0.5,1.4,5.4-1.4,15.4-7.3c5-2.9,13-7.6,17.8-10.4c7.3-4.2,57.7-34.2,68.4-40.7c1.8-1.1,3.6-1.7,4-1.3
		c0.4,0.4,3.2,4.7,6.2,9.6c6.6,10.6,19.9,30,20.6,30c0.3,0,1.2-1.7,2.1-3.8c3.3-8,19.7-35.5,23.2-39c2-2,8.5-7.9,14.4-13
		c5.9-5.1,11.4-10.3,12.3-11.6c1.2-1.8,7.7-30.6,7.1-31.3c-0.2-0.2-9.3,5.2-27,15.9c-5.2,3.2-9.7,5.8-10,5.8s4.3-8.4,10.1-18.8
		c5.8-10.3,11.9-21,13.4-23.8c4.4-7.8,4.7-10.4,4-34.2l-0.7-22.2l-19.5,23.6c-10.7,13-22.2,26.9-25.5,30.9c-6.3,7.6-8.3,8.8-17,9.9
		c-2.8,0.4-6,1.3-7.1,2c-2,1.2-8.5,10-32.3,43.4c-8,11.2-15.3,19.3-44.6,49.4C339.1,424.1,323.2,440.7,323,441.2z M693.2,611.7
		L725,636h56.3c31,0,56.5-0.3,56.8-0.8c0.3-0.4-15.8-9-35.7-19c-19.9-10-61.6-31.1-92.7-46.8c-162.6-82.2-191.5-96.5-195-96.4
		l-3.5,0.1l3,2.4c1.7,1.3,14.2,10.8,28,21.1c13.8,10.3,32.7,24.6,42,31.8c9.3,7.2,23.5,18.1,31.5,24s21.5,16.3,30,22.9
		C654.4,582,675.7,598.3,693.2,611.7z M147.8,635.2c0,0.4,25.6,0.8,56.9,0.8h56.9l7.3-5.6c4-3.1,12.3-9.4,18.3-14
		c6-4.6,15.3-11.7,20.5-15.7c5.2-4,20.3-15.6,33.5-25.7c13.2-10.1,28.7-22,34.5-26.4c21.6-16.6,34.2-26.1,59.5-45.1
		c14.3-10.7,29.1-21.9,32.8-24.7l6.8-5.2l-3.3-0.3c-2.6-0.2-24.5,10.4-112.9,55C298.5,558.6,226.4,595,198.5,609
		S147.9,634.8,147.8,635.2z M724.8,665.8V761h22v-27l9.8,0l9.8,0l8,12.2c4.4,6.7,8.6,12.8,9.3,13.5c1.5,1.5,24.6,2,24,0.5
		c-0.2-0.4-4.8-7.5-10.3-15.6c-9.2-13.6-9.8-14.9-8.1-16c6.6-4,10.7-8.1,13.3-13.3c2.5-5.1,2.8-6.9,2.8-15.3c0-8.6-0.3-10.1-3-15.5
		c-2-4.1-4.7-7.4-8.2-10.2c-8.7-7-11.9-7.6-42.5-8.1L724.8,665.8z M214.4,440.2l-1.8,2.7l4.6-2c2.5-1.1,7.3-3.5,10.6-5.4
		c6.2-3.5,8.7-5.4,50.6-38c13.4-10.5,25.7-19.8,27.4-20.8l3-1.8l4.6,6.5c4.9,6.8,6,7.6,6.8,4.8c3.4-12.4,14.2-70.2,13.4-72.4
		c-0.2-0.6-19.8,18.8-43.7,43c-23.8,24.2-43.8,44.1-44.3,44.1c-0.5,0-7.3-5.3-15.1-11.8c-7.8-6.5-16.3-13.5-18.9-15.6l-4.8-3.8
		l-7.2,5.9c-14.8,12.1-34.9,28.3-57.2,46.2c-12.6,10.1-23.5,18.9-24,19.4c-1.4,1.5-1.2,1.4,30.5-13.5c52.4-24.6,56-26.1,56-23.9
		c0,0.5,4.3,5.5,9.6,11l0.6,0.6c5.8,6.1,8.2,8.6,8.1,11.1c-0.1,1.9-1.6,3.8-4.3,7.3C217.4,435.9,215.3,438.7,214.4,440.2z
		 M608.8,760.7c0,0.2,5.1,0.3,11.3,0.3h11.3l8-19.5h43.8l8.2,19l11.9,0.3c9.3,0.2,11.7,0,11.3-1c-0.3-0.7-9.8-22-21.1-47.3l-20.5-46
		l-11.4-0.3l-11.4-0.3l-4.2,9.8c-2.3,5.4-6.2,14.1-8.5,19.3s-7,15.8-10.3,23.5s-8.8,20.3-12.1,28
		C611.6,754.1,608.8,760.5,608.8,760.7z M319.8,760.2c0,0.4,5,0.8,11.1,0.8h11l1.8-4.2c1-2.3,2.9-6.8,4.2-10l2.4-5.7l21.6,0l21.6,0
		l1.7,4.2c0.9,2.3,2.8,6.8,4.2,10l2.6,5.8h11.4c6.2,0,11.4-0.3,11.4-0.7c0-0.6-13.5-31.5-29.5-67.3c-2.3-5.2-6-13.5-8.1-18.3
		l-3.9-8.8l-11.5,0.3l-11.5,0.3L354,681c-3.5,8-8.8,20.3-11.9,27.5c-3.1,7.2-9.3,21.5-13.9,32C323.6,750.9,319.8,759.8,319.8,760.2z
		 M459.3,762.4c3.9,0.9,20.1-0.3,25.6-1.9c14.2-4.1,22.9-14.5,22.9-27.3c0-10.2-5.1-18.3-14.3-22.6c-2.9-1.4-11.5-4.1-19.1-6
		c-16.2-4.2-19.7-5.9-21-10.5c-0.8-2.7-0.6-3.8,1.1-6c3-4,8.3-5.4,18.8-5c8.7,0.4,9.8,0.7,23,6.3c0.5,0.2,2.5-3.3,4.3-7.8l3.3-8.2
		l-2.1-1.7c-8.9-7.3-39.6-8.9-53.5-2.8c-12.9,5.6-19.7,19.4-16,32.2c3,10.2,11.7,15.9,32.5,21.3c14.7,3.8,18.8,5.7,20.1,9.2
		c1.5,3.8,1.2,5.1-1.8,8.4c-6,6.7-22.2,6-38-1.5c-4.1-1.9-7.6-3.5-7.9-3.5c-0.7,0-7.4,14.3-7.4,15.8c0,1.8,15.1,8.7,22,10.1
		C454.8,761.5,458.2,762.2,459.3,762.4z M215,759.2c0.8,1.5,2.5,1.8,11.8,1.8h10.8l2.3-5.8c1.3-3.2,4.8-11.4,7.8-18.2
		s7.1-16.5,9.2-21.5c2.1-5,7.6-18,12.4-28.9c4.7-11,8.6-20.1,8.6-20.3s-5-0.2-11.2-0.1l-11.2,0.3L250,679c-3,6.9-6.6,15.7-8.2,19.5
		c-6.1,14.8-13.9,32-14.7,32.2c-0.4,0.2-4.6-8.8-9.2-20c-4.6-11.1-10.6-25.8-13.4-32.5l-5.1-12.2h-11.8c-6.5,0-11.8,0.2-11.8,0.3
		c0,0.2,2.2,5.5,5,11.9c2.7,6.4,8.3,19.6,12.4,29.4C210.1,748.1,214.1,757.6,215,759.2z M557,761.5c8.3,1.8,14.8,1.8,23.2,0
		c8.4-1.8,13.9-4.4,20.5-9.6c7.2-5.8,7.2-6.4-0.1-13.1c-3.5-3.2-6.6-5.8-7.1-5.8c-0.4,0-3,1.7-5.7,3.9c-6.3,5-10.8,6.5-19,6.5
		c-11.4-0.1-21.6-6.6-26.1-16.7c-3.3-7.4-3.3-19.2-0.1-26.2c4.7-10.3,12.4-15.5,23.9-16.3c9.3-0.6,15.1,1,21.4,6l4.9,3.9l2.7-2
		c1.5-1.1,4.7-4,7.2-6.5l4.4-4.6l-2.4-2.6c-8.2-8.7-20.8-13.4-35.8-13.4c-15.6,0-27.3,4.4-37,13.8c-9.5,9.3-14.1,20.6-14.1,34.7
		C517.8,737.5,533.2,756.3,557,761.5z M697.3,424.8c12.7,13.7,15.5,16.3,15.5,14.6c0-1.9-6.4-16-13.1-28.9
		c-7.9-15.2-10.4-19.8-10.4-24.5c0-2.1,0.5-4.2,1.2-7.3c0.1-0.3,0.2-0.7,0.2-1c1.8-7.6,2.5-10.6,3.9-11.1c1-0.3,2.4,0.5,4.7,2
		l0.1,0.1c7.7,4.8,17.6,10.4,17.9,10.1c0.4-0.4-25.9-53.7-26.5-53.7c-0.3,0-5.1,3.9-10.6,8.7c-5.5,4.8-16.2,13.7-23.6,19.8
		c-7.5,6-13.6,11.3-13.6,11.7c0,0.4,3.5,4.4,7.8,9c4.3,4.6,13.4,14.4,20.2,21.9C677.7,403.6,689.6,416.5,697.3,424.8z M287.3,759.8
		c0.4,1,3.2,1.2,11.3,1l10.8-0.3v-94h-22l-0.3,46C286.9,737.8,287,759.1,287.3,759.8z M774.8,713.8c-3.8,2-5.9,2.2-16.2,2.2h-11.8
		v-32.2l13.5,0.4c11.6,0.3,13.8,0.7,16.2,2.4c5.2,3.9,6.8,7.1,6.8,13.4C783.3,707.1,781.2,710.5,774.8,713.8z M554.8,789v32h3.5
		c3.5,0,3.5,0,3.5-4.5c0-4.5,0-4.5,3.5-4.5c3,0,3.9,0.6,6.5,4.5c2.8,4.1,3.5,4.5,7.2,4.5h4.1l-1.6-2.5c-0.4-0.7-0.8-1.3-1.2-1.9
		c-2.4-3.6-3.2-4.9-3-6c0.2-0.8,0.9-1.4,2-2.7c3.4-4,3.7-11.4,0.5-14.8c-3.1-3.4-6.1-4.1-16-4.1H554.8z M369.5,820.3
		c0.4,0.4,2.1,0.7,4,0.7h3.3l0.3-9.2l0.3-9.2l7.4,9.2c6.7,8.3,7.8,9.2,10.8,9.2h3.3v-32h-8v18.2l-3.5-4.3
		c-11-13.4-11.4-13.8-15-13.8h-3.4v15.3C368.8,812.8,369.1,820,369.5,820.3z M837.3,422.9c12.1,4.8,12.8,4.9,8.3,1.4
		c-1.9-1.5-10.4-8.4-18.8-15.2c-20.4-16.7-23.3-19-24.5-18.9c-0.5,0-4.3,2.9-8.3,6.5c-6,5.3-7,6.6-5.5,7.1c1,0.4,6.4,2.6,11.9,4.9
		c5.6,2.4,13.9,5.6,18.5,7.3C823.6,417.5,831.8,420.7,837.3,422.9z M471.8,789v32h7v-9c0-5,0.4-9,0.8-9c0.4,0,4,4,8,9
		c6.2,7.7,7.6,9,10.2,9h3v-32h-7v8.5c0,4.7-0.4,8.5-0.9,8.5c-0.8,0-8.3-8.8-13-15.1c-0.9-1.2-2.6-1.9-4.8-1.9H471.8z M600.2,819.6
		c-0.4,1.1,0.4,1.4,3.4,1.4c3.6,0,4-0.3,5.2-3.5l1.3-3.5h14.5l1.7,3.5c1.4,3,2.2,3.5,5.2,3.5c1.9,0,3.5-0.5,3.5-1
		c0-0.6-2.2-5.8-4.8-11.8c-2.6-5.9-5.6-12.6-6.6-15c-1.7-4-2.1-4.2-5.9-4.2l-4.1,0l-6.3,14.6C603.5,811.6,600.5,818.8,600.2,819.6z
		 M475.9,866.8c0,0.9,1.1,1.2,3.7,1c3.2-0.3,3.8-0.7,4.6-3.6l0.9-3.2l7.6,0c7.6,0,7.6,0,9.1,3.2c1.2,2.7,2.1,3.3,5.2,3.5
		c2.1,0.2,3.8,0.1,3.8-0.1c0-0.2-3.1-7.4-6.9-15.8l-6.9-15.4h-8.5l-6.3,14.5C478.7,859,475.9,866.1,475.9,866.8z M440.8,789v32h25
		v-6h-17v-6.9l7.2-0.3c7-0.3,7.3-0.4,7.6-3c0.3-2.7,0.3-2.7-7-3l-7.3-0.3l-0.6-6.5h16.1v-6H440.8z M523.8,789v32h25v-5.9l-17.5-0.6
		l-0.6-6.5h15.1v-5.9l-14.5-0.6l-0.6-6.5h17.1v-6H523.8z M416,820.6c4.9,1.6,10.6,1.1,15.5-1.2c3.2-1.5,3.3-1.7,3.3-8V805h-3.5
		c-3.5,0-3.5,0-3.5,4.4c0,4.7-1,5.6-5.6,5.6c-3.6,0-7.8-2.5-9.2-5.5c-4.4-9.7,5-18.1,14.8-13.1c2.6,1.4,3.1,1.3,5.2-0.5l2.3-2
		l-2.7-2.4c-1.5-1.4-4.6-2.7-7.2-3.1c-14.4-2.2-25.4,10.3-19.9,22.6C408,816.6,410.5,818.8,416,820.6z M385.8,723.1
		c0,0.5-6,0.9-14,0.9c-7.7,0-14-0.2-14-0.5c0-0.4,6.9-17.8,11.8-29.8c0.8-2.1,1.9-3.8,2.3-3.8C373,690,385.8,720.5,385.8,723.1z
		 M675.1,723.4c-0.8,0.8-26.7,0.8-27.5,0.1c-0.6-0.6,11.8-31.4,13.1-32.8c0.2-0.2,0.4-0.4,0.6-0.5c0.7-0.1,1.6,2.1,5.9,12.7l0.5,1.1
		c2.8,6.9,5.8,13.9,6.6,15.7C675.1,721.4,675.4,723.1,675.1,723.4z M516.9,866.9c1.4,0.5,4.9,1,8,1c10,0.1,16.1-6.3,12.7-13.5
		c-1.4-2.9-2.5-3.6-7.4-5c-8.3-2.3-10.3-3.2-10.3-5c0-2.7,4.5-4,9.8-2.7c4.1,0.9,4.9,0.9,6-0.5c2.1-2.7,1.4-4.1-2.5-5.2
		c-4.7-1.3-8.8-1.3-13.5,0c-4.5,1.3-6.8,4.2-6.8,9c0,4.8,2.9,7.4,10.4,9.3c7,1.8,8.5,3,7,5.4c-1.5,2.4-5.6,2.7-11.1,0.8
		c-2.5-0.9-4.7-1.5-4.8-1.3C511.3,863,512,864.9,516.9,866.9z M452.9,866.9c3.8,1.5,12.7,1.3,16-0.4c3.6-1.8,5-4.3,5-8.8
		c0-4.4-3-7.2-9.5-8.8c-6.5-1.6-8.5-2.6-8.5-4.5c0-2.7,4.5-3.9,9.8-2.7c5.1,1.2,5.6,1,6.7-2.5c0.6-1.9,0.1-2.3-3.1-3.2
		c-8.1-2.2-17-0.5-19.3,3.9c-0.6,1.2-1,3.8-0.8,5.8c0.4,4.3,4.5,7.7,10.7,8.7c5.5,0.9,7.9,2.9,6.5,5.2c-1.5,2.4-7.2,2.8-12,0.8
		c-2.1-0.9-3.8-1.4-4-1.3C447.3,863,448,864.9,452.9,866.9z M354.5,820.3c0.4,0.4,2.2,0.7,4,0.7h3.3v-32h-8v15.3
		C353.8,812.8,354.1,820,354.5,820.3z M588.4,820c0.3,0.5,2.1,1,4,1h3.4v-32h-6.7l-0.7,15C588.1,812.3,588,819.5,588.4,820z
		 M508.8,789v32h7v-32H508.8z M572.6,804.4c-1.2,0.9-4.2,1.6-6.5,1.6h-4.3v-11h4.9c5.5,0,8.1,1.8,8.1,5.5
		C574.8,801.8,573.8,803.6,572.6,804.4z M496.2,851.2l1.6,3.8h-4.5c-5.1,0-5.3-0.5-2.8-6.7c1.9-4.6,2.7-5.2,3.5-2.5
		C494.4,846.7,495.3,849.2,496.2,851.2z M621.3,805.8c0.6,2,0.3,2.2-3.9,2.2c-2.5,0-4.6-0.2-4.6-0.4c0-0.2,1.1-2.8,2.4-5.8l2.4-5.4
		l1.5,3.6C619.9,802.1,620.9,804.7,621.3,805.8z"/>
	<g>
		<path class="st2" d="M333.6,313.9c-0.2-0.6-19.8,18.8-43.7,43c-23.8,24.2-43.8,44.1-44.3,44.1c-0.5,0-7.3-5.3-15.1-11.8
			c-7.8-6.5-16.3-13.5-18.9-15.6l-4.8-3.8l-7.2,5.9c-14.8,12.1-34.9,28.3-57.2,46.2c-12.6,10.1-23.5,18.9-24,19.4
			c-1.4,1.5-1.2,1.4,30.5-13.5c52.4-24.6,56-26.1,56-23.9c0,0.5,4.3,5.5,9.6,11l0.6,0.6c5.8,6.1,8.2,8.6,8.1,11.1
			c0,1.9-1.6,3.8-4.3,7.3c-1.5,2-3.6,4.8-4.6,6.3l-1.8,2.7l4.5-2c2.5-1.1,7.3-3.5,10.6-5.4c6.2-3.5,8.7-5.4,50.6-38
			c13.4-10.5,25.7-19.8,27.4-20.8l3-1.8l4.7,6.5c4.9,6.8,6,7.6,6.8,4.8C323.6,373.8,334.4,316.1,333.6,313.9z"/>
		<path class="st2" d="M917.7,436.5c-11.2-73.7-38-139.4-81.3-199.4C802.8,190.5,758,149.3,707.8,119c-24-14.5-59.9-31.1-85.5-39.5
			c-24.9-8.1-57.2-15.3-82.5-18.2c-18.5-2.1-70.5-2.4-89.5-0.4c-25.1,2.6-59.9,9.8-82.1,17.1c-49,16-97.5,41.9-136.3,72.9
			c-51.3,40.9-90.2,88.6-119.6,146.7c-16.6,32.8-27.3,61.8-36.5,99c-4.1,16.7-10,50-10,56.8v3.9l4.4-3.3
			c2.4-1.8,24.5-19.5,49.1-39.3c24.6-19.8,47.3-38,50.5-40.5c3.2-2.5,12.6-10,21-16.8c8.4-6.7,15.8-12.2,16.5-12.2
			c1.6,0,3.7,1.6,20.3,15.7c7.3,6.2,14.1,11.7,15.1,12.2c1.5,0.8,8.7-5.9,47.1-44.3l45.3-45.3l13.8,12.6
			c7.6,6.9,20.3,18.6,28.3,25.9c8,7.3,14.7,13.2,15,13.2c0.3,0,3.8-4.6,7.8-10.2c11.3-16,20.5-28.1,22.8-30.1
			c1.2-1.1,5.8-2.6,10.7-3.6c4.7-1,9.1-2.4,9.8-3.3c0.7-0.8,4.7-5.7,8.9-10.9c4.2-5.1,11.4-13.9,16-19.5
			c19.8-24.1,36.2-43.4,36.9-43.4c0.4,0,1.6,1.1,2.7,2.5c2.3,3,33.4,37.4,44.2,49c4.1,4.4,21.2,23.2,37.8,41.7
			c25.9,28.8,31.3,34.9,37.3,35.6c1.6,0.2,3.3,0,5.4-0.2c0.2,0,0.3,0,0.5-0.1c7-0.8,9-2.1,26.5-17c6.5-5.5,16.5-13.8,22.2-18.4
			l10.4-8.4l3.6,3.4c2,1.9,12.9,11.9,24.2,22.3s27,25,35,32.4c8,7.4,17.1,15.9,20.3,18.9l5.8,5.3l5.7-4.9c3.1-2.7,8-6.5,10.9-8.5
			c4.9-3.5,5.2-3.5,7.5-2c4,2.8,61.4,48.9,77.4,62.2c8.3,6.9,16.6,13.7,18.5,15.2c1.9,1.5,6.8,5.3,11,8.6c4.1,3.3,7.7,5.8,8,5.5
			C920.5,456.7,919.9,451,917.7,436.5z"/>
		<path class="st2" d="M845.6,424.2c-1.9-1.5-10.4-8.4-18.8-15.2c-20.4-16.7-23.3-19-24.5-18.9c-0.5,0-4.3,2.9-8.3,6.5
			c-6,5.3-7,6.6-5.5,7.1c1,0.4,6.4,2.6,11.9,4.9c5.6,2.4,13.9,5.6,18.5,7.3c4.6,1.7,12.9,4.8,18.4,7
			C849.4,427.6,850.2,427.8,845.6,424.2z"/>
		<path class="st2" d="M690.7,377.7c1.8-7.6,2.5-10.6,3.9-11.1c1-0.3,2.4,0.5,4.7,2l0.1,0.1c7.7,4.8,17.6,10.4,17.9,10.1
			c0.4-0.4-25.9-53.7-26.5-53.7c-0.3,0-5.1,3.9-10.6,8.7c-5.5,4.8-16.2,13.7-23.6,19.8c-7.5,6-13.6,11.3-13.6,11.7
			c0,0.4,3.5,4.4,7.8,9c4.3,4.6,13.4,14.4,20.2,21.9c6.8,7.5,18.7,20.4,26.4,28.7c12.7,13.7,15.5,16.3,15.5,14.6
			c0-1.9-6.4-16-13.1-28.9c-7.9-15.2-10.4-19.8-10.4-24.5c0-2.1,0.5-4.2,1.2-7.3C690.6,378.4,690.6,378.1,690.7,377.7z"/>
		<path class="st2" d="M487.4,338.2c-5.2,3.2-9.7,5.8-10,5.8c-0.3,0,4.3-8.4,10.1-18.8c5.8-10.3,11.9-21,13.4-23.8
			c4.4-7.8,4.7-10.4,4-34.2l-0.7-22.2l-19.5,23.6c-10.7,13-22.2,26.9-25.5,30.9c-6.3,7.6-8.3,8.8-17,9.9c-2.8,0.4-6,1.3-7.1,2
			c-2,1.2-8.5,10-32.3,43.4c-8,11.2-15.3,19.3-44.6,49.4c-19.2,19.8-35.2,36.3-35.3,36.9c-0.5,1.5,5.4-1.4,15.4-7.3
			c5-3,13-7.6,17.8-10.4c7.3-4.2,57.7-34.2,68.4-40.7c1.8-1.1,3.6-1.7,4-1.3c0.4,0.4,3.2,4.7,6.2,9.6c6.6,10.6,19.9,30,20.6,30
			c0.3,0,1.2-1.7,2.1-3.8c3.3-8,19.7-35.5,23.2-39c2-2,8.5-7.9,14.4-13c5.9-5.1,11.4-10.3,12.3-11.6c1.2-1.8,7.7-30.6,7.1-31.3
			C514.3,322.1,505.1,327.5,487.4,338.2z"/>
	</g>
	<g>
		<path class="st3" d="M545.3,481.1c110.6,45.2,258.3,105,354.5,145.3c1.9,0.8,3.8,1.6,4.1,1.6c2.1,0.1,13.1-47.6,15-65.4
			c3.8-25,4.8-62,2.7-89.6c-72.1,0.6-371.5-1.2-390.5,1.6C531,475.1,533.7,476.3,545.3,481.1z"/>
		<path class="st3" d="M312.8,635.2c0,0.5,79.5,0.7,163.7,0.8c0.9-14.2,3.6-42.7,4.3-42.7c0.9-2.1,1.4-2.2,11.2-2.2
			c5.6,0,10.9,0.4,11.7,0.9c2.3,0.4,5.3,42.8,5.1,44c84.4,0,164-0.2,164.3-0.7C628.6,589.7,552.6,518.3,505.7,473h-24.8
			C421.6,529.6,305.1,641.8,312.8,635.2z M490.8,490.5c5.1-2.4,7,7,2.4,8.3C488.5,500.3,489.5,492.2,490.8,490.5z M488.4,512.2
			c0.5-3,0.8-3.2,4.3-3.2c6.4-1.7,4.9,9.6,5.1,16C486.7,525.1,486.1,526.2,488.4,512.2z M484.3,552.9c0.8-13.6,1-13.9,9.4-13.9
			c3.9,0,5.3,0.4,6,1.9c1.2,2.5,1.4,20.1,1.6,25.6C483.3,566.2,483.1,571.7,484.3,552.9z"/>
		<path class="st3" d="M853.5,792L853.5,792l-84.5,0c-150.2,148.9-400.9,148.5-551.7,0c-19.6,0.2-74.2-0.2-85-0.3
			c178.8,237.2,541.6,236.7,721.8,0.2C853.9,791.9,853.7,791.9,853.5,792z"/>
		<path class="st3" d="M200.3,579.8c73.3-30.2,148.9-61.1,219.5-89.8c17.3-8,28-9.7,34.7-15.4c12.3-1.8-329-1.4-389.6-1.7
			c-5.6,42.3,2.3,110.4,16,152.3c2,5,2.9,1.9,8.5,0.1C98.7,621.2,190.6,583.9,200.3,579.8z"/>
	</g>
</g>
</svg>
