<?xml version="1.0" encoding="utf-8"?>
<!-- Generator: Adobe Illustrator 25.0.1, SVG Export Plug-In . SVG Version: 6.00 Build 0)  -->
<svg version="1.1" id="Layer_1" xmlns="http://www.w3.org/2000/svg" xmlns:xlink="http://www.w3.org/1999/xlink" x="0px" y="0px"
	 viewBox="0 0 208.5 232.3" style="enable-background:new 0 0 208.5 232.3;" xml:space="preserve">
<style type="text/css">
	.st0{fill:#483930;}
	.st1{fill:#483930;}
</style>
<path class="st0" d="M63,131c7.2-3.2,17-5,24.5-6.2c-15.5-1.9-22.1-0.6-31.7,9.6C58.9,132.8,60,132.3,63,131z"/>
<path class="st1" d="M205.4,212.2c-1.7-0.6-4.1-1.9-3.6-2.4c2-37.5-27.8-84.7-68.3-77.5c-6.1,1.2-15.7,3.7-15.9-4.4
	c3.8-9,17.2-4.6,24.3-2.2l0,0c5,2.6,14.8,5.8,16.1-2c-1.3-8.9-15.9-9.4-21.6-13.9c18.4-46.6,6.5-67.8-19.3-106.4
	c-12.7-17.1-14.4,36.1-14.5,38.2l0,0c0.2,7.5,1.3,14.9,2.8,22.3c-21.2-24.1-61.9-27-86.9-5.8c-0.8,1.8-0.3,3.9,1.3,5
	c32.5,24.8,54.9,46,97.6,48.1c-3.9,1.8-7.9,6.8-11.6,7.2c-10.5-3.5-20.2-6.1-29-5.9c-36.3,0.8-61.9,35.2-66.4,71.1
	c-0.3,4.2-0.7,8.6-2.9,9.7c-6,1.7-9.6,7.2-6.4,12.4c5.9,7,8.9,0.3,12.8,1.2c40.9,29.4,92.5-8.6,98.4-53.3
	c-3.7,43.4,35,98.6,80.1,71.9c4.3-3.9,5.4-2.7,9.9-1.5C208.5,223.8,210.9,214.7,205.4,212.2z M18.4,176.1
	c6.5-35.6,43.5-70.2,79.7-51.9c-30.5,11.8-55.8,35.5-76.4,60.3c0.9-3.3,2.1-7,3.8-10.8l0,0c2.3-9.6,17.3-29.2,24.1-35.8
	c-15.2,6.7-23.6,20.5-30.9,38.3L18.4,176.1z M105.1,134.4C100,146,94,157.2,87.2,167.9c-4.3,7.4-12.5,11.4-17.5,17.9
	c16.9-2.6,28.1-17.7,35-34.2c0.6,25.8-25.4,55.8-53.7,55.7c0.1,0,0.1-0.1,0.2-0.1c-5.5,0-11,0.2-16.4-0.7
	c10.5,0.5,34.4-6.7,39.1-17.2c-7.9,2.1-27.3,12.6-40.2,12.2c-0.4,0-0.7,0-1.1,0c-0.7,0-1.4,0-2-0.1c-0.1,0-0.2,0-0.2,0l0,0
	c-0.3,0-0.7-0.1-1-0.2c-0.7-0.2-1.4-0.4-2.2-0.6c0.3,0,0.5,0,0.8,0c22-12.5,44.3-24.7,56.5-47.9c-0.4-0.7-1,0.9-1.4,1.2
	c-18.7,16.7-38.9,31.7-61.5,42.5c20.7-29.8,50.3-52.5,83.8-65.9C106.1,131.7,105.8,133.2,105.1,134.4z M112.8,150.2
	c0.3-3.2,0.3-6.4,0.1-9.6c0.5,0.4,1.1,0.8,1.7,1.2C113.7,144.5,113.1,147.3,112.8,150.2z M113.2,72.2c-0.2-0.9-0.4-1.8-0.6-2.8l0,0
	c-0.2-1.3-0.6-2.4-0.8-3.7c11.3,8.4,16.8,20.7,17.1,34.5C124,90.7,116.9,82.3,113.2,72.2z M125.2,109.9c-2.1-2.2-2.9-4.4-4.3-8.4
	c-0.6-1.8-1.4-4.3-2.1-7.4c2.4,2.6,4.2,4.9,5.4,6.7c1.8,2.5,2.9,4.2,3.9,6.7c0.9,2.2,1.2,4.2,1.4,5.5
	C128.5,112.4,126.8,111.5,125.2,109.9z M138.8,61.2L138.8,61.2c1.2,5.4,2.7,11.2,0.9,16.5l0,0c-1.3,7.6-3.8,15-7.2,21.9
	c-1.5-15.4-3.3-24,5.8-40.2C138.5,60,138.7,60.6,138.8,61.2z M127.9,72.3h-0.3c-4.1-11.4-1.4-22,4.3-32.3
	C138.3,51,135.4,62.8,127.9,72.3z M115.1,13.2L115.1,13.2c0.8,1.7,1.9,3.6,3.3,5.6c1,1.4,2.1,2.7,3.1,3.8c0.9,1.4,1.9,2.7,2.8,4.1
	c1,1.8,2.7,5.6,2.7,10.6c0,5.8-2.2,10.1-3.3,11.9c-0.6-2-1.1-4-1.6-5.9c-0.5-2.1-1-4.1-1.6-6.2c-0.9-3.6-1.6-6.3-2.7-9.7
	c-1.2-3.7-1.5-3.9-2.3-6.3c-1.1-3.8-1.5-7-1.6-9.1C114.3,12.3,114.7,12.7,115.1,13.2z M111.8,13.7c1.6,10.1,5.1,19.9,7.3,29.9
	C105.3,35.7,109.2,27,111.8,13.7z M124.4,71c-14.5-8.7-15.3-14.8-15.6-31C119.6,49.3,123.8,56.5,124.4,71z M43.4,72.6
	c-4.6-3.8-9.2-7.6-13.9-11.3c13.3,0.8,26.6,1.6,38.7,7.3C58.6,70.4,54.8,78.5,43.4,72.6z M54.3,81.5c10.3-8.2,23.4-12.2,34-2.3
	l-0.2,0.4C69.6,83,72.9,96.8,54.3,81.5z M111.5,102.5c-13.1-1.7-26.5-2.8-38.3-9c12.1-1.5,18-15.8,29.8-2.3
	c4.1,4.1,8.4,7.9,12.2,12.3C114.1,103,112.8,102.7,111.5,102.5z M97.2,76.2c-1.4-5.2-8.7-13.6-12.9-17.1c3.3,5.3,8.1,12.1,7.9,18.6
	C79.4,71.6,71.3,58,57.7,53.1c4.4,4.3,8.1,8.2,11.2,12.8c-2.9-1.5-6.8-3.1-10.1-4.2l0,0C49,59.3,39,59.1,29,58.4
	c45.6-19.8,74.8,0.9,86.4,39.1C109.4,90.2,99.2,86.2,97.2,76.2z M172.6,225.7c-36.8-2.3-55.7-38-53.6-71.7c5.1,34,26,64.4,61.7,70.3
	C178.1,225.4,175.4,225.9,172.6,225.7z M161.3,191.2c8.1,10.9,14,20.3,28,26.3c-9,0.6-18.2-2.6-26.6-5.9c0.2,0.2,0.4,0.3,0.6,0.5
	c-20.8-11.4-35-33.4-37.1-57c9,7,18.3,13.3,26.2,22.4l0.4-0.3c-4.8-14.5-15.5-22.9-25.7-32.9c28,7.3,51.6,38.8,64.7,64.1
	c-13.4-4.1-22.7-16.3-34.2-24.4l-0.4,0.3L161.3,191.2z M133.6,139.3c34.9-6.1,60.6,32.2,60.3,64.3
	C182.7,175.9,160.8,151.9,133.6,139.3z"/>
</svg>
