<?xml version="1.0" encoding="utf-8"?>
<!-- Generator: Adobe Illustrator 25.0.1, SVG Export Plug-In . SVG Version: 6.00 Build 0)  -->
<svg version="1.1" id="Layer_1" xmlns="http://www.w3.org/2000/svg" xmlns:xlink="http://www.w3.org/1999/xlink" x="0px" y="0px"
	 viewBox="0 0 976.5 976.5" style="enable-background:new 0 0 976.5 976.5;" xml:space="preserve">
<style type="text/css">
	.st0{fill:#FFFFFF;}
	.st1{fill:#92C12A;}
	.st2{fill:#F5C30D;}
</style>
<circle cx="488.2" cy="488.2" r="488.2"/>
<path class="st0" d="M470.4,468.4c0,0-332,252.8-339.5,258.6c-6.6-10.1-23.1-34.9-38.3-71.1c10.9-5.5,370.1-187.6,370.1-187.6H470.4
	z"/>
<path class="st0" d="M506.1,468.4c0,0,332,252.8,339.5,258.6c6.6-10.1,23.1-34.9,38.3-71.1c-10.9-5.5-370.1-187.6-370.1-187.6H506.1
	z"/>
<g>
	<path class="st1" d="M328.5,309.3c-0.2-0.6-19.8,18.8-43.7,43c-23.8,24.2-43.8,44.1-44.3,44.1s-7.3-5.3-15.1-11.8
		s-16.3-13.5-18.9-15.6l-4.8-3.8l-7.2,5.9c-14.8,12.1-34.9,28.3-57.2,46.2c-12.6,10.1-23.5,18.9-24,19.4c-1.4,1.5-1.2,1.4,30.5-13.5
		c52.4-24.6,56-26.1,56-23.9c0,0.5,4.3,5.5,9.6,11l0.6,0.6c5.8,6.1,8.2,8.6,8.1,11.1c0,1.9-1.6,3.8-4.3,7.3c-1.5,2-3.6,4.8-4.6,6.3
		l-1.8,2.7l4.5-2c2.5-1.1,7.3-3.5,10.6-5.4c6.2-3.5,8.7-5.4,50.6-38c13.4-10.5,25.7-19.8,27.4-20.8l3-1.8l4.7,6.5
		c4.9,6.8,6,7.6,6.8,4.8C318.5,369.2,329.3,311.5,328.5,309.3z"/>
	<path class="st1" d="M912.6,431.9c-11.2-73.7-38-139.4-81.3-199.4c-33.6-46.6-78.4-87.8-128.6-118.1c-24-14.5-59.9-31.1-85.5-39.5
		c-24.9-8.1-57.2-15.3-82.5-18.2c-18.5-2.1-70.5-2.4-89.5-0.4c-25.1,2.6-59.9,9.8-82.1,17.1c-49,16-97.5,41.9-136.3,72.9
		c-51.3,40.9-90.2,88.6-119.6,146.7c-16.6,32.8-27.3,61.8-36.5,99c-4.1,16.7-10,50-10,56.8v3.9l4.4-3.3c2.4-1.8,24.5-19.5,49.1-39.3
		s47.3-38,50.5-40.5c3.2-2.5,12.6-10,21-16.8c8.4-6.7,15.8-12.2,16.5-12.2c1.6,0,3.7,1.6,20.3,15.7c7.3,6.2,14.1,11.7,15.1,12.2
		c1.5,0.8,8.7-5.9,47.1-44.3l45.3-45.3l13.8,12.6c7.6,6.9,20.3,18.6,28.3,25.9s14.7,13.2,15,13.2s3.8-4.6,7.8-10.2
		c11.3-16,20.5-28.1,22.8-30.1c1.2-1.1,5.8-2.6,10.7-3.6c4.7-1,9.1-2.4,9.8-3.3c0.7-0.8,4.7-5.7,8.9-10.9c4.2-5.1,11.4-13.9,16-19.5
		c19.8-24.1,36.2-43.4,36.9-43.4c0.4,0,1.6,1.1,2.7,2.5c2.3,3,33.4,37.4,44.2,49c4.1,4.4,21.2,23.2,37.8,41.7
		c25.9,28.8,31.3,34.9,37.3,35.6c1.6,0.2,3.3,0,5.4-0.2c0.2,0,0.3,0,0.5-0.1c7-0.8,9-2.1,26.5-17c6.5-5.5,16.5-13.8,22.2-18.4
		l10.4-8.4l3.6,3.4c2,1.9,12.9,11.9,24.2,22.3s27,25,35,32.4s17.1,15.9,20.3,18.9l5.8,5.3l5.7-4.9c3.1-2.7,8-6.5,10.9-8.5
		c4.9-3.5,5.2-3.5,7.5-2c4,2.8,61.4,48.9,77.4,62.2c8.3,6.9,16.6,13.7,18.5,15.2s6.8,5.3,11,8.6c4.1,3.3,7.7,5.8,8,5.5
		C915.4,452.1,914.8,446.4,912.6,431.9z"/>
	<path class="st1" d="M840.5,419.6c-1.9-1.5-10.4-8.4-18.8-15.2c-20.4-16.7-23.3-19-24.5-18.9c-0.5,0-4.3,2.9-8.3,6.5
		c-6,5.3-7,6.6-5.5,7.1c1,0.4,6.4,2.6,11.9,4.9c5.6,2.4,13.9,5.6,18.5,7.3c4.6,1.7,12.9,4.8,18.4,7
		C844.3,423,845.1,423.2,840.5,419.6z"/>
	<path class="st1" d="M685.6,373.1c1.8-7.6,2.5-10.6,3.9-11.1c1-0.3,2.4,0.5,4.7,2l0.1,0.1c7.7,4.8,17.6,10.4,17.9,10.1
		c0.4-0.4-25.9-53.7-26.5-53.7c-0.3,0-5.1,3.9-10.6,8.7c-5.5,4.8-16.2,13.7-23.6,19.8c-7.5,6-13.6,11.3-13.6,11.7
		c0,0.4,3.5,4.4,7.8,9s13.4,14.4,20.2,21.9s18.7,20.4,26.4,28.7c12.7,13.7,15.5,16.3,15.5,14.6c0-1.9-6.4-16-13.1-28.9
		c-7.9-15.2-10.4-19.8-10.4-24.5c0-2.1,0.5-4.2,1.2-7.3C685.5,373.8,685.5,373.5,685.6,373.1z"/>
	<path class="st1" d="M482.3,333.6c-5.2,3.2-9.7,5.8-10,5.8s4.3-8.4,10.1-18.8c5.8-10.3,11.9-21,13.4-23.8c4.4-7.8,4.7-10.4,4-34.2
		l-0.7-22.2L479.6,264c-10.7,13-22.2,26.9-25.5,30.9c-6.3,7.6-8.3,8.8-17,9.9c-2.8,0.4-6,1.3-7.1,2c-2,1.2-8.5,10-32.3,43.4
		c-8,11.2-15.3,19.3-44.6,49.4c-19.2,19.8-35.2,36.3-35.3,36.9c-0.5,1.5,5.4-1.4,15.4-7.3c5-3,13-7.6,17.8-10.4
		c7.3-4.2,57.7-34.2,68.4-40.7c1.8-1.1,3.6-1.7,4-1.3c0.4,0.4,3.2,4.7,6.2,9.6c6.6,10.6,19.9,30,20.6,30c0.3,0,1.2-1.7,2.1-3.8
		c3.3-8,19.7-35.5,23.2-39c2-2,8.5-7.9,14.4-13s11.4-10.3,12.3-11.6c1.2-1.8,7.7-30.6,7.1-31.3C509.2,317.5,500,322.9,482.3,333.6z"
		/>
</g>
<g>
	<path class="st2" d="M543.6,476.7c110.6,45.2,256.5,105.5,352.7,145.8c16.2-49.6,23.1-101,20.7-154.1c-100.3,0-374.2,0-393.9,0
		C528.1,470.6,532,471.9,543.6,476.7z"/>
	<path class="st2" d="M475.8,468.4L163.4,769.7c24.2,28,68.4,71.9,136.2,105c78.4,38.3,150,43.5,188.5,43.5
		c39.9-0.1,115.1-5.6,196.5-47.5c62.5-32.1,104.1-73.1,128.1-100.9C708.8,669.3,604.7,568.9,500.6,468.4H475.8z"/>
	<path class="st2" d="M195.2,575.2c85.1-36.1,175.5-69.5,256.3-106.8c-10.8,0-331.1,0.2-391.7-0.1c-3.2,43.5,4.8,111.5,20.3,154.1
		C89.4,618.3,185.5,579.3,195.2,575.2z"/>
</g>
<g>
	<path class="st0" d="M465.1,697.1c-6.6,67.7-13.3,135.9-17.4,177.8h82.1c-4.3-41.8-11.4-110-18.5-177.8H465.1z"/>
	<path class="st0" d="M475.9,586.5c-1.4,14.2-2.9,29.3-4.4,44.9h32.9c-1.6-15.7-3.2-30.8-4.7-44.9H475.9z"/>
	<path class="st0" d="M480.9,534.4c-0.8,8.5-1.7,17.9-2.7,28h19.1c-1.1-10.1-2-19.5-2.9-28H480.9z"/>
	<path class="st0" d="M490.2,494.4c-0.6-5.5-0.9-8.5-0.9-8.5h-3.6c0,0-0.3,3-0.8,8.5H490.2z"/>
	<path class="st0" d="M483.9,504.2c-0.5,4.7-1,10.1-1.6,16.2h10.6c-0.6-6.1-1.2-11.6-1.7-16.2H483.9z"/>
</g>
</svg>
